<?xml version="1.0" encoding="utf-8"?>
<svg id="master-artboard" viewBox="0 0 850.4 1133.9" version="1.1" xmlns="http://www.w3.org/2000/svg" x="0px" y="0px" style="enable-background:new 0 0 850.4 1133.9;" width="850.4000244140625px" height="1133.9000244140625px" xmlns:xlink="http://www.w3.org/1999/xlink"><g transform="matrix(0.6074285888671875, 0, 0, 0.6074285888671875, -0.000005300350039760815, 269.31000101193433)"><path d="M 0 0 H 1400 V 980 H 0 V 0 Z" class="st0" style="fill: rgb(229, 229, 229);"/><g>
	<defs>
		<path d="M 0 0 H 1400 V 980 H 0 V 0 Z" id="SVGID_1_"/>
	</defs>
	<clipPath id="SVGID_2_">
		<use style="overflow:visible;" xlink:href="#SVGID_1_"/>
	</clipPath>
	<g class="st1" style="clip-path: url('#SVGID_2_');">
		<g>
			<path class="st2" d="M1467.6,713.3V576.6h-365.4L1069.7,255h398V145.6h-229.2L1216.6,0h-117l17,145.6H920.8L911.4,0h-12.8h-7.5&#10;&#9;&#9;&#9;&#9;h-96.6l4.6,145.6H645.1L646.6,0h-117l-6.2,145.6H353.8L366.6,0h-117L232,145.6H-44.7L-20.1,255h238.9l-87.7,725h149.1l23.5-266.7&#10;&#9;&#9;&#9;&#9;h369.6L672.8,980h149.1l-8.2-266.7h162.1L994.1,980h149.1l-27-266.7H1467.6z M944.3,255L955,410.7H642.5l1.5-155.8H944.3z&#10;&#9;&#9;&#9;&#9; M315.8,576.6L344.1,255h174.6l-12,281.6h456.9l2.8,40.1H315.8z" style="fill: rgb(239, 239, 239);"/>
			<path d="M 492.399994 272.899994 L 368.200012 272.899994 L 345.100006 555.799988 L 478.399994 555.799988 L 492.399994 272.899994" class="st3" style="fill: rgb(201, 225, 166);"/>
			<path d="M 898.099976 278.799988 L 691.700012 278.799988 L 692 385.200012 L 904.099976 385.200012 L 898.099976 278.799988" class="st4" style="fill: rgb(173, 201, 196);"/>
			<path d="M 1099.199951171875 697.7999877929688 L 1072.4000244140625 424.1000061035156 L 628 424.1000061035156 L 630.5 242.60000610351562 L 913.2999877929688 242.60000610351562 L 898.5999755859375 0 L 807.2999877929688 0 L 812.7999877929688 157.3000030517578 L 536.2999877929688 157.3000030517578 L 522.0999755859375 522.2999877929688 L 977.4000244140625 522.2999877929688 L 982.4000244140625 591.2000122070312 L 688.5 591.2000122070312 L 689.2000122070312 980 L 805.5 980 L 797.7999877929688 697.7999877929688 Z" class="st5" style="fill: rgb(91, 92, 96);"/>
			<path d="M 750.099976 867.5 L 741.400024 867.5 L 742.5 951.5 L 751.400024 951.5 L 750.099976 867.5" class="st6" style="fill: rgb(255, 255, 255);"/>
			<path d="M 748 734.599976 L 739.599976 734.599976 L 740.700012 813.599976 L 749.200012 813.599976 L 748 734.599976" class="st6" style="fill: rgb(255, 255, 255);"/>
			<path d="M 941.5 639.799988 L 840.700012 639.799988 L 841 647.900024 L 942 647.900024 L 941.5 639.799988" class="st6" style="fill: rgb(255, 255, 255);"/>
			<path d="M 1040.699951 603.900024 L 1032.599976 603.900024 L 1035.599976 639.799988 L 999 639.799988 L 999.599976 647.900024 L 1044.5 647.900024 L 1040.699951 603.900024" class="st6" style="fill: rgb(255, 255, 255);"/>
			<path d="M 1035.400024 542.099976 L 1027.400024 542.099976 L 1029.800049 570.900024 L 1037.900024 570.900024 L 1035.400024 542.099976" class="st6" style="fill: rgb(255, 255, 255);"/>
			<path d="M 1029.099976 468.899994 L 986.099976 468.899994 L 986.700012 476.399994 L 1021.799988 476.399994 L 1024.699951 510.100006 L 1032.699951 510.100006 L 1029.099976 468.899994" class="st6" style="fill: rgb(255, 255, 255);"/>
			<path d="M 941.400024 468.899994 L 876.200012 468.899994 L 876.599976 476.399994 L 941.900024 476.399994 L 941.400024 468.899994" class="st6" style="fill: rgb(255, 255, 255);"/>
			<path d="M 833.099976 468.899994 L 767.900024 468.899994 L 768 476.399994 L 833.400024 476.399994 L 833.099976 468.899994" class="st6" style="fill: rgb(255, 255, 255);"/>
			<path d="M 724.799988 468.899994 L 659.599976 468.899994 L 659.5 476.399994 L 724.799988 476.399994 L 724.799988 468.899994" class="st6" style="fill: rgb(255, 255, 255);"/>
			<path d="M 584.400024 282.899994 L 576.900024 282.899994 L 574.200012 380.799988 L 582 380.799988 L 584.400024 282.899994" class="st6" style="fill: rgb(255, 255, 255);"/>
			<path d="M 771.799988 196.199997 L 673.5 196.199997 L 673.5 202.699997 L 771.900024 202.699997 L 771.799988 196.199997" class="st6" style="fill: rgb(255, 255, 255);"/>
			<path d="M 864.599976 167.5 L 857.299988 167.5 L 858.599976 196.199997 L 825.900024 196.199997 L 826.200012 202.699997 L 866.299988 202.699997 L 864.599976 167.5" class="st6" style="fill: rgb(255, 255, 255);"/>
			<path d="M 860.700012 87.699997 L 853.5 87.699997 L 855.700012 133.399994 L 862.900024 133.399994 L 860.700012 87.699997" class="st6" style="fill: rgb(255, 255, 255);"/>
			<path d="M 857.099976 14.3 L 850.099976 14.3 L 852.099976 58.099998 L 859.299988 58.099998 L 857.099976 14.3" class="st6" style="fill: rgb(255, 255, 255);"/>
			<path d="M 781.5 639.799988 L 738.299988 639.799988 L 738.900024 682.900024 L 747.200012 682.900024 L 746.700012 647.900024 L 781.700012 647.900024 L 781.5 639.799988" class="st6" style="fill: rgb(255, 255, 255);"/>
			<path d="M 580.5 437.399994 L 572.700012 437.399994 L 571.599976 476.399994 L 613.099976 476.399994 L 613.200012 468.899994 L 579.700012 468.899994 L 580.5 437.399994" class="st6" style="fill: rgb(255, 255, 255);"/>
			<path d="M 617.900024 196.199997 L 579.200012 196.199997 L 578.299988 230.699997 L 585.799988 230.699997 L 586.5 202.800003 L 617.700012 202.800003 L 617.900024 196.199997" class="st6" style="fill: rgb(255, 255, 255);"/>
			<path d="M 182.399994 272.899994 L 47.299999 272.899994 L 34.700001 349.5 L 172.399994 349.5 L 182.399994 272.899994" class="st7" style="fill: rgb(202, 202, 202);"/>
			<path d="M 168.699997 378.600006 L 29.9 378.600006 L 16.5 459.600006 L 158.100006 459.600006 L 168.699997 378.600006" class="st7" style="fill: rgb(202, 202, 202);"/>
			<path d="M 154.199997 490.299988 L 11.4 490.299988 L -2.7 576 L 143 576 L 154.199997 490.299988" class="st7" style="fill: rgb(202, 202, 202);"/>
			<path d="M 138.800003 608.599976 L -8.1 608.599976 L -23.1 699.400024 L 127 699.400024 L 138.800003 608.599976" class="st7" style="fill: rgb(202, 202, 202);"/>
			<path d="M 122.5 733.900024 L -28.700001 733.900024 L -44.700001 830.299988 L 110 830.299988 L 122.5 733.900024" class="st7" style="fill: rgb(202, 202, 202);"/>
			<path d="M 105.300003 867 L -50.700001 867 L -67.599998 969.5 L 91.900002 969.5 L 105.300003 867" class="st7" style="fill: rgb(202, 202, 202);"/>
			<path class="st3" d="M382.3,780.4c-9,0-17.7,1.9-25.7,5.2c-8.1,3.4-15.5,8.3-21.9,14.3c-6.4,6.1-11.8,13.3-15.8,21.4&#10;&#9;&#9;&#9;&#9;c-4,8.1-6.6,17.1-7.4,26.5c-0.8,9.5,0.3,18.6,3,26.9c2.7,8.3,7,15.8,12.5,22.2c5.6,6.4,12.4,11.5,20.1,15.1&#10;&#9;&#9;&#9;&#9;c7.8,3.6,16.5,5.6,25.7,5.6s18.2-2,26.5-5.6c8.2-3.6,15.8-8.7,22.2-15.1c6.4-6.3,11.7-13.9,15.5-22.2c3.8-8.3,6.2-17.4,6.7-26.9&#10;&#9;&#9;&#9;&#9;c0.5-9.4-0.9-18.4-3.7-26.5c-2.9-8.1-7.3-15.4-12.8-21.4c-5.6-6.1-12.3-11-19.9-14.3C399.7,782.3,391.3,780.4,382.3,780.4" style="fill: rgb(201, 225, 166);"/>
			<path class="st3" d="M556,780.4c-9,0-17.6,1.9-25.5,5.2c-7.9,3.4-15.1,8.3-21.3,14.3c-6.2,6.1-11.3,13.3-14.9,21.4&#10;&#9;&#9;&#9;&#9;c-3.7,8.1-5.9,17.1-6.3,26.5c-0.4,9.5,1,18.6,4,26.9c3,8.3,7.6,15.8,13.4,22.2c5.8,6.4,12.8,11.5,20.7,15.1&#10;&#9;&#9;&#9;&#9;c7.9,3.6,16.7,5.6,25.9,5.6s18.2-2,26.3-5.6c8.1-3.6,15.4-8.7,21.6-15.1c6.2-6.3,11.2-13.9,14.7-22.2c3.5-8.3,5.5-17.4,5.6-26.9&#10;&#9;&#9;&#9;&#9;c0.1-9.4-1.6-18.4-4.8-26.5c-3.2-8.1-7.9-15.4-13.7-21.4c-5.8-6.1-12.7-11-20.5-14.3C573.5,782.3,565,780.4,556,780.4" style="fill: rgb(201, 225, 166);"/>
			<path class="st8" d="M1467.6,282.9H1249c-18.3,0-35.3,3.4-50.3,9.4c-15.1,6.1-28.3,15-39,26c-10.8,11.1-19,24.4-24.1,39.2&#10;&#9;&#9;&#9;&#9;c-5.1,15-7.1,31.5-5.1,49.1c2,17.7,7.8,34.7,16.6,50.3c8.8,15.7,20.7,30,34.8,42.1c14.2,12.1,30.6,22,48.3,28.9&#10;&#9;&#9;&#9;&#9;c17.8,6.9,36.9,10.7,56.4,10.7h181V282.9z" style="fill: rgb(93, 217, 249);"/>
			<path d="M 948.200012 748.200012 L 844.700012 748.200012 L 853.5 980 L 962.5 980 L 948.200012 748.200012" class="st9" style="fill: rgb(219, 193, 172);"/>
			<path class="st7" d="M516.3,0H379.9c-0.7,7.9,0.6,15.5,3.5,22.4c2.9,6.9,7.4,13.2,13.2,18.5c5.8,5.3,13,9.6,21,12.6&#10;&#9;&#9;&#9;&#9;c8.1,3,17.1,4.6,26.6,4.6c9.6,0,18.8-1.7,27.2-4.6c8.4-3,16.1-7.3,22.7-12.6c6.5-5.3,11.9-11.6,15.7-18.5&#10;&#9;&#9;&#9;&#9;C513.7,15.5,515.9,7.9,516.3,0" style="fill: rgb(202, 202, 202);"/>
			<path d="M 1293.699951 765.5 L 1143.800049 765.5 L 1165.5 969.5 L 1322.5 969.5 L 1293.699951 765.5" class="st7" style="fill: rgb(202, 202, 202);"/>
			<path d="M 1467.599976 765.5 L 1324.099976 765.5 L 1354.300049 969.5 L 1467.599976 969.5 L 1467.599976 765.5" class="st7" style="fill: rgb(202, 202, 202);"/>
		</g>
		<g>
			<path class="st10" d="M855.2,199.4c0,71.6-73.6,136.1-73.6,136.1s-73.6-64.5-73.6-136.1c0-40.6,32.9-73.6,73.6-73.6&#10;&#9;&#9;&#9;&#9;C822.3,125.8,855.2,158.8,855.2,199.4z" style="fill: rgb(255, 84, 65);"/>
			<path d="M 832.700012 199.399994 A 51 51 0 0 1 781.700012 250.399994 A 51 51 0 0 1 730.700012 199.399994 A 51 51 0 0 1 781.700012 148.399994 A 51 51 0 0 1 832.700012 199.399994 Z" class="st6" style="fill: rgb(255, 255, 255);"/>
		</g>
	</g>
</g></g></svg>